<?xml version="1.0" standalone="no"?>
<!DOCTYPE svg PUBLIC "-//W3C//DTD SVG 20010904//EN"
 "http://www.w3.org/TR/2001/REC-SVG-20010904/DTD/svg10.dtd">
<svg version="1.0" xmlns="http://www.w3.org/2000/svg"
 width="500.000000pt" height="500.000000pt" viewBox="0 0 500.000000 500.000000"
 preserveAspectRatio="xMidYMid meet">

<g transform="translate(0.000000,500.000000) scale(0.100000,-0.100000)"
fill="#000000" stroke="none">
<path d="M2613 4863 c9 -2 25 -2 35 0 9 3 1 5 -18 5 -19 0 -27 -2 -17 -5z"/>
<path d="M2918 4863 c12 -2 30 -2 40 0 9 3 -1 5 -23 4 -22 0 -30 -2 -17 -4z"/>
<path d="M2543 4853 c9 -2 23 -2 30 0 6 3 -1 5 -18 5 -16 0 -22 -2 -12 -5z"/>
<path d="M2998 4853 c7 -3 16 -2 19 1 4 3 -2 6 -13 5 -11 0 -14 -3 -6 -6z"/>
<path d="M2483 4843 c9 -2 23 -2 30 0 6 3 -1 5 -18 5 -16 0 -22 -2 -12 -5z"/>
<path d="M3058 4843 c7 -3 16 -2 19 1 4 3 -2 6 -13 5 -11 0 -14 -3 -6 -6z"/>
<path d="M2352 4813 c-64 -23 -46 -25 23 -3 33 10 51 19 40 19 -11 0 -39 -7
-63 -16z"/>
<path d="M3150 4820 c34 -11 60 -11 35 0 -11 5 -29 8 -40 8 -16 0 -15 -2 5 -8z"/>
<path d="M3218 4803 c7 -3 16 -2 19 1 4 3 -2 6 -13 5 -11 0 -14 -3 -6 -6z"/>
<path d="M2250 4778 c-94 -42 -219 -104 -263 -130 -91 -55 -210 -153 -272
-224 -101 -115 -95 -113 30 12 149 150 285 239 500 328 33 14 53 25 45 25 -8
0 -26 -5 -40 -11z"/>
<path d="M3278 4783 c7 -3 16 -2 19 1 4 3 -2 6 -13 5 -11 0 -14 -3 -6 -6z"/>
<path d="M3320 4770 c8 -5 22 -9 30 -9 10 0 8 3 -5 9 -27 12 -43 12 -25 0z"/>
<path d="M3420 4736 c0 -2 35 -20 78 -41 219 -108 438 -305 591 -533 76 -113
180 -356 207 -482 4 -19 9 -29 11 -23 7 20 -43 183 -86 282 -119 274 -342 532
-606 703 -65 41 -195 104 -195 94z"/>
<path d="M2665 4664 c-225 -22 -492 -143 -700 -318 -112 -94 -216 -201 -236
-244 -24 -48 -19 -66 10 -34 27 33 94 58 210 82 93 19 115 20 195 10 358 -43
678 -195 1156 -548 154 -115 447 -357 510 -423 8 -8 101 -89 205 -178 105 -90
217 -189 249 -220 32 -31 53 -47 45 -35 -18 26 -176 169 -414 372 -30 26 -192
171 -230 206 -42 39 -242 203 -275 226 -19 13 -37 27 -40 30 -16 17 -180 137
-272 199 -247 165 -545 309 -706 341 -26 5 -74 16 -107 25 -154 38 -333 27
-462 -31 -31 -13 -59 -22 -61 -19 -8 8 115 131 213 215 215 183 445 293 680
326 130 18 202 17 300 -1 310 -59 563 -205 832 -477 158 -160 199 -209 352
-413 431 -575 571 -916 532 -1293 -7 -64 -17 -135 -23 -157 -26 -98 -60 -202
-88 -267 -17 -38 -30 -77 -30 -87 0 -9 14 16 31 54 152 347 169 698 48 1008
-72 184 -247 474 -447 742 -335 447 -627 703 -943 828 -163 65 -374 97 -534
81z"/>
<path d="M1573 4238 c-15 -20 -25 -38 -20 -38 3 0 12 11 21 25 17 26 16 35 -1
13z"/>
<path d="M1496 4103 c-6 -14 -5 -15 5 -6 7 7 10 15 7 18 -3 3 -9 -2 -12 -12z"/>
<path d="M2030 4117 c3 -3 43 -15 90 -28 124 -33 335 -145 565 -299 168 -112
300 -193 523 -321 17 -11 47 -27 65 -38 90 -52 117 -68 177 -105 36 -23 134
-87 218 -143 85 -57 149 -96 142 -88 -28 33 -359 247 -574 369 -128 74 -337
203 -462 287 -322 214 -460 291 -604 336 -67 21 -149 39 -140 30z"/>
<path d="M1900 4056 c-72 -13 -122 -35 -160 -69 -55 -50 -51 -58 6 -13 76 58
131 76 248 77 63 1 82 4 61 9 -42 11 -80 10 -155 -4z"/>
<path d="M1447 3993 c-83 -218 -111 -488 -73 -720 33 -205 144 -451 279 -622
58 -72 242 -243 317 -292 84 -56 199 -119 216 -119 5 1 -22 16 -59 35 -137 70
-213 128 -355 268 -210 208 -342 463 -388 747 -32 200 -6 464 65 675 17 49 29
90 27 92 -1 2 -14 -27 -29 -64z"/>
<path d="M2135 4040 c22 -5 53 -13 69 -19 16 -7 31 -10 33 -7 7 7 -89 36 -116
35 -19 -1 -14 -4 14 -9z"/>
<path d="M1697 4033 c-4 -3 -7 -13 -7 -22 1 -13 3 -13 11 2 11 19 8 33 -4 20z"/>
<path d="M2280 3995 c46 -18 64 -17 25 0 -16 8 -37 14 -45 14 -8 0 1 -7 20
-14z"/>
<path d="M2347 3969 c7 -7 15 -10 18 -7 3 3 -2 9 -12 12 -14 6 -15 5 -6 -5z"/>
<path d="M1621 3850 l-44 -91 6 -122 c8 -169 31 -233 131 -362 36 -46 186
-198 186 -188 0 3 -29 37 -65 74 -47 48 -77 91 -107 155 -41 85 -42 90 -42
188 0 79 6 118 24 179 14 42 27 77 30 77 3 0 6 -44 7 -98 2 -141 50 -275 141
-394 59 -77 100 -145 113 -190 16 -54 39 -181 39 -214 0 -17 10 -44 21 -59 21
-26 24 -27 90 -20 l69 7 10 -28 c17 -50 26 -59 59 -62 25 -3 31 -8 31 -27 0
-19 7 -26 28 -30 44 -10 56 -20 63 -53 31 -152 203 -141 372 24 62 60 144 171
134 180 -2 3 -18 -17 -35 -43 -62 -97 -213 -222 -293 -243 -48 -13 -102 -4
-124 20 -20 22 -56 120 -44 120 5 0 9 5 9 10 0 6 -15 8 -40 4 -32 -5 -41 -3
-46 11 -10 26 7 47 54 64 43 15 60 39 20 26 -13 -4 -45 -11 -73 -15 -35 -5
-41 -8 -20 -9 23 -1 27 -3 15 -11 -8 -5 -28 -10 -43 -10 -23 0 -31 7 -43 35
-8 21 -26 40 -42 47 l-27 12 39 5 c22 3 41 11 43 17 5 16 -69 4 -99 -17 -31
-23 -71 -25 -88 -4 -6 8 -16 45 -20 82 -18 140 -47 236 -93 303 -17 25 -33 47
-37 50 -19 16 -71 92 -93 135 -55 110 -72 189 -72 337 0 75 -3 134 -7 131 -5
-2 -8 -10 -8 -17 0 -7 -12 -41 -26 -77 -41 -99 -54 -163 -54 -254 0 -59 6
-100 19 -135 11 -27 15 -50 11 -50 -15 0 -80 142 -88 190 -7 44 -2 138 11 210
4 22 0 15 -12 -20 l-19 -55 -1 44 c-1 58 17 117 52 169 15 23 27 52 25 63 -2
14 -17 -10 -47 -71z"/>
<path d="M1810 3920 c0 -6 4 -16 10 -23 47 -57 60 -76 60 -86 0 -6 5 -11 10
-11 6 0 27 -11 48 -25 20 -13 57 -27 82 -30 25 -4 56 -8 68 -11 13 -3 21 -1
18 4 -3 5 -31 14 -63 21 -84 16 -155 60 -194 121 -33 52 -39 57 -39 40z"/>
<path d="M1811 3872 c-1 -33 33 -95 70 -126 68 -58 199 -108 316 -121 72 -8
125 -27 228 -81 44 -23 125 -61 180 -84 324 -136 456 -203 595 -298 137 -95
195 -176 247 -347 29 -96 41 -275 23 -345 -21 -81 -20 -96 2 -35 46 128 20
344 -61 510 -22 44 -39 81 -38 82 1 1 27 -22 58 -50 229 -209 351 -321 394
-358 361 -319 507 -516 523 -707 3 -36 8 -58 13 -51 17 28 -12 150 -58 244
-68 138 -213 301 -473 530 -69 60 -154 137 -190 171 -267 253 -473 411 -667
508 -48 25 -180 84 -293 131 -332 141 -363 164 -182 131 48 -8 114 -17 147
-20 55 -5 53 -4 -30 15 -132 28 -195 39 -237 39 -20 0 -43 6 -50 13 -7 8 -33
17 -58 21 -25 4 -56 10 -69 13 -17 4 -22 2 -17 -6 11 -17 -17 -14 -98 10 -86
25 -175 71 -209 107 -14 15 -35 50 -46 77 -13 34 -20 43 -20 27z"/>
<path d="M1655 3819 c-4 -6 -5 -12 -2 -15 2 -3 7 2 10 11 7 17 1 20 -8 4z"/>
<path d="M2130 3729 c-13 -9 -12 -10 3 -5 9 3 27 2 40 -3 27 -10 174 -25 166
-17 -3 4 -42 11 -85 16 -44 5 -86 11 -94 14 -8 3 -22 1 -30 -5z"/>
<path d="M2378 3693 c6 -2 18 -2 25 0 6 3 1 5 -13 5 -14 0 -19 -2 -12 -5z"/>
<path d="M4312 3615 c0 -16 2 -22 5 -12 2 9 2 23 0 30 -3 6 -5 -1 -5 -18z"/>
<path d="M2965 3580 c10 -11 20 -20 23 -20 3 0 -3 9 -13 20 -10 11 -20 20 -23
20 -3 0 3 -9 13 -20z"/>
<path d="M3034 3526 c22 -20 78 -64 125 -97 47 -33 156 -111 241 -174 181
-134 298 -213 470 -320 181 -112 322 -217 429 -320 108 -104 166 -182 207
-278 16 -37 30 -64 32 -58 6 17 -66 156 -112 218 -98 130 -309 301 -578 469
-26 16 -81 52 -123 79 -42 28 -98 63 -123 78 -26 16 -58 39 -72 52 -14 12 -63
49 -110 81 -47 32 -155 109 -240 172 -185 137 -197 145 -146 98z"/>
<path d="M2865 3479 c4 -5 14 -9 23 -9 28 0 283 -137 371 -199 35 -25 297
-171 306 -171 13 0 -63 49 -138 89 -79 42 -274 155 -352 205 -83 53 -225 111
-210 85z"/>
<path d="M2142 3439 c-59 -11 -118 -46 -131 -78 l-11 -26 20 27 c25 32 113 68
173 69 23 1 56 5 72 9 44 11 -66 11 -123 -1z"/>
<path d="M2313 3433 c9 -2 23 -2 30 0 6 3 -1 5 -18 5 -16 0 -22 -2 -12 -5z"/>
<path d="M2107 3343 c-15 -14 -6 -51 22 -89 l30 -39 -21 -22 c-25 -27 -18 -29
23 -7 24 12 34 13 45 4 32 -28 124 35 124 84 0 15 7 29 15 32 8 4 12 10 9 15
-3 5 -38 -14 -78 -41 -40 -28 -82 -50 -92 -50 -23 0 -68 79 -58 103 6 17 -6
23 -19 10z m204 -81 c-13 -25 -58 -54 -77 -50 -9 2 4 17 33 39 52 39 60 41 44
11z"/>
<path d="M3003 3084 c-1 -71 -32 -193 -55 -222 -6 -7 -8 -15 -5 -19 20 -19 77
174 77 256 0 71 -15 57 -17 -15z"/>
<path d="M2897 2683 c-64 -50 -66 -61 -21 -155 36 -77 39 -91 42 -184 3 -75 0
-110 -12 -138 -20 -48 -20 -55 -1 -30 14 19 14 19 15 -1 0 -27 -38 -87 -76
-119 -38 -31 -58 -77 -50 -110 13 -53 123 -47 251 13 151 70 240 144 317 261
l29 45 -28 -35 c-97 -122 -193 -198 -323 -258 -120 -55 -177 -65 -218 -36 -34
23 -27 50 29 107 75 76 87 110 88 247 2 125 -13 190 -64 277 -21 34 -24 47
-15 63 6 11 14 20 18 20 11 1 65 50 60 56 -3 2 -21 -8 -41 -23z"/>
<path d="M2291 2455 c8 -11 20 -26 27 -33 6 -8 26 -33 43 -58 64 -93 91 -193
91 -329 -1 -126 -30 -220 -112 -365 -17 -30 -22 -44 -11 -30 38 47 100 176
120 250 25 89 28 220 6 300 -22 82 -71 172 -127 232 -28 29 -44 44 -37 33z"/>
<path d="M4542 2245 c0 -11 4 -31 8 -45 6 -20 8 -21 8 -5 0 11 -4 31 -8 45 -6
20 -8 21 -8 5z"/>
<path d="M2210 2230 c8 -5 20 -10 25 -10 6 0 3 5 -5 10 -8 5 -19 10 -25 10 -5
0 -3 -5 5 -10z"/>
<path d="M2278 2203 c7 -3 16 -2 19 1 4 3 -2 6 -13 5 -11 0 -14 -3 -6 -6z"/>
<path d="M2320 2190 c8 -5 20 -10 25 -10 6 0 3 5 -5 10 -8 5 -19 10 -25 10 -5
0 -3 -5 5 -10z"/>
<path d="M4466 1863 c-6 -14 -5 -15 5 -6 7 7 10 15 7 18 -3 3 -9 -2 -12 -12z"/>
<path d="M4424 1788 c-9 -18 -24 -43 -32 -55 -8 -13 -12 -23 -9 -23 6 0 52 70
60 93 11 29 -1 19 -19 -15z"/>
<path d="M2280 1580 c-12 -16 -19 -30 -16 -30 2 0 14 14 26 30 12 17 19 30 16
30 -2 0 -14 -13 -26 -30z"/>
<path d="M4239 1513 c-13 -16 -12 -17 4 -4 16 13 21 21 13 21 -2 0 -10 -8 -17
-17z"/>
<path d="M2211 1491 c-8 -9 -57 -61 -110 -115 l-96 -99 78 69 c75 65 153 151
146 159 -2 1 -10 -4 -18 -14z"/>
<path d="M4104 1338 l-19 -23 23 19 c12 11 22 21 22 23 0 8 -8 2 -26 -19z"/>
<path d="M3965 1187 c-305 -314 -630 -555 -988 -731 -247 -122 -387 -172 -607
-216 -145 -29 -330 -29 -448 1 -173 43 -319 145 -378 266 -27 54 -29 66 -29
183 0 102 3 132 19 163 10 21 16 40 13 43 -3 3 -15 -21 -27 -53 -30 -78 -33
-212 -6 -300 47 -153 213 -278 429 -323 73 -15 292 -15 382 0 256 42 551 151
808 298 20 12 52 30 70 40 246 141 575 412 827 685 81 87 36 48 -65 -56z"/>
<path d="M1825 1150 c-3 -5 -2 -10 4 -10 5 0 13 5 16 10 3 6 2 10 -4 10 -5 0
-13 -4 -16 -10z"/>
<path d="M1785 1130 c-3 -6 1 -7 9 -4 18 7 21 14 7 14 -6 0 -13 -4 -16 -10z"/>
<path d="M1688 1066 c-61 -51 -105 -100 -122 -136 -4 -8 3 -2 16 14 36 46 109
116 151 143 20 14 37 27 37 29 0 12 -24 -2 -82 -50z"/>
</g>
</svg>
