<svg width="1440" height="640" viewBox="0 0 1440 640" fill="none" xmlns="http://www.w3.org/2000/svg">
<path d="M1286.56 16.44C1287.64 16.68 1289.56 16.68 1290.76 16.44C1291.84 16.08 1290.88 15.84 1288.6 15.84C1286.32 15.84 1285.36 16.08 1286.56 16.44Z" fill="#305F72"/>
<path d="M1323.16 16.44C1324.6 16.68 1326.76 16.68 1327.96 16.44C1329.04 16.08 1327.84 15.84 1325.2 15.96C1322.56 15.96 1321.6 16.2 1323.16 16.44Z" fill="#305F72"/>
<path d="M1278.16 17.64C1279.24 17.88 1280.92 17.88 1281.76 17.64C1282.48 17.28 1281.64 17.04 1279.6 17.04C1277.68 17.04 1276.96 17.28 1278.16 17.64Z" fill="#305F72"/>
<path d="M1332.76 17.6401C1333.6 18.0001 1334.68 17.8801 1335.04 17.5201C1335.52 17.1601 1334.8 16.8001 1333.48 16.9201C1332.16 16.9201 1331.8 17.2801 1332.76 17.6401Z" fill="#305F72"/>
<path d="M1270.96 18.84C1272.04 19.08 1273.72 19.08 1274.56 18.84C1275.28 18.48 1274.44 18.24 1272.4 18.24C1270.48 18.24 1269.76 18.48 1270.96 18.84Z" fill="#305F72"/>
<path d="M1339.96 18.84C1340.8 19.2 1341.88 19.08 1342.24 18.72C1342.72 18.36 1342 18 1340.68 18.12C1339.36 18.12 1339 18.48 1339.96 18.84Z" fill="#305F72"/>
<path d="M1255.24 22.4401C1247.56 25.2001 1249.72 25.4401 1258 22.8001C1261.96 21.6001 1264.12 20.5201 1262.8 20.5201C1261.48 20.5201 1258.12 21.3601 1255.24 22.4401Z" fill="#305F72"/>
<path d="M1351 21.6C1355.08 22.92 1358.2 22.92 1355.2 21.6C1353.88 21 1351.72 20.64 1350.4 20.64C1348.48 20.64 1348.6 20.88 1351 21.6Z" fill="#305F72"/>
<path d="M1359.16 23.6401C1360 24.0001 1361.08 23.8801 1361.44 23.5201C1361.92 23.1601 1361.2 22.8001 1359.88 22.9201C1358.56 22.9201 1358.2 23.2801 1359.16 23.6401Z" fill="#305F72"/>
<path d="M1243 26.64C1231.72 31.68 1216.72 39.12 1211.44 42.24C1200.52 48.84 1186.24 60.6 1178.8 69.12C1166.68 82.92 1167.4 82.68 1182.4 67.68C1200.28 49.68 1216.6 39 1242.4 28.32C1246.36 26.64 1248.76 25.32 1247.8 25.32C1246.84 25.32 1244.68 25.92 1243 26.64Z" fill="#305F72"/>
<path d="M1366.36 26.04C1367.2 26.4 1368.28 26.28 1368.64 25.92C1369.12 25.56 1368.4 25.2 1367.08 25.32C1365.76 25.32 1365.4 25.68 1366.36 26.04Z" fill="#305F72"/>
<path d="M1371.4 27.6C1372.36 28.2 1374.04 28.68 1375 28.68C1376.2 28.68 1375.96 28.32 1374.4 27.6C1371.16 26.16 1369.24 26.16 1371.4 27.6Z" fill="#305F72"/>
<path d="M1383.4 31.68C1383.4 31.92 1387.6 34.08 1392.76 36.6C1419.04 49.56 1445.32 73.2 1463.68 100.56C1472.8 114.12 1485.28 143.28 1488.52 158.4C1489 160.68 1489.6 161.88 1489.84 161.16C1490.68 158.76 1484.68 139.2 1479.52 127.32C1465.24 94.44 1438.48 63.48 1406.8 42.96C1399 38.04 1383.4 30.48 1383.4 31.68Z" fill="#305F72"/>
<path d="M1292.8 40.3199C1265.8 42.9599 1233.76 57.4799 1208.8 78.4799C1195.36 89.7599 1182.88 102.6 1180.48 107.76C1177.6 113.52 1178.2 115.68 1181.68 111.84C1184.92 107.88 1192.96 104.88 1206.88 102C1218.04 99.7199 1220.68 99.5999 1230.28 100.8C1273.24 105.96 1311.64 124.2 1369 166.56C1387.48 180.36 1422.64 209.4 1430.2 217.32C1431.16 218.28 1442.32 228 1454.8 238.68C1467.4 249.48 1480.84 261.36 1484.68 265.08C1488.52 268.8 1491.04 270.72 1490.08 269.28C1487.92 266.16 1468.96 249 1440.4 224.64C1436.8 221.52 1417.36 204.12 1412.8 199.92C1407.76 195.24 1383.76 175.56 1379.8 172.8C1377.52 171.24 1375.36 169.56 1375 169.2C1373.08 167.16 1353.4 152.76 1342.36 145.32C1312.72 125.52 1276.96 108.24 1257.64 104.4C1254.52 103.8 1248.76 102.48 1244.8 101.4C1226.32 96.8399 1204.84 98.1599 1189.36 105.12C1185.64 106.68 1182.28 107.76 1182.04 107.4C1181.08 106.44 1195.84 91.6799 1207.6 81.5999C1233.4 59.64 1261 46.4399 1289.2 42.4799C1304.8 40.3199 1313.44 40.4399 1325.2 42.5999C1362.4 49.6799 1392.76 67.2 1425.04 99.8399C1444 119.04 1448.92 124.92 1467.28 149.4C1519 218.4 1535.8 259.32 1531.12 304.56C1530.28 312.24 1529.08 320.76 1528.36 323.4C1525.24 335.16 1521.16 347.64 1517.8 355.44C1515.76 360 1514.2 364.68 1514.2 365.88C1514.2 366.96 1515.88 363.96 1517.92 359.4C1536.16 317.76 1538.2 275.64 1523.68 238.44C1515.04 216.36 1494.04 181.56 1470.04 149.4C1429.84 95.7599 1394.8 65.0399 1356.88 50.0399C1337.32 42.2399 1312 38.3999 1292.8 40.3199Z" fill="#305F72"/>
<path d="M1161.76 91.44C1159.96 93.84 1158.76 96 1159.36 96C1159.72 96 1160.8 94.68 1161.88 93C1163.92 89.88 1163.8 88.8 1161.76 91.44Z" fill="#305F72"/>
<path d="M1152.52 107.64C1151.8 109.32 1151.92 109.44 1153.12 108.36C1153.96 107.52 1154.32 106.56 1153.96 106.2C1153.6 105.84 1152.88 106.44 1152.52 107.64Z" fill="#305F72"/>
<path d="M1216.6 105.96C1216.96 106.32 1221.76 107.76 1227.4 109.32C1242.28 113.28 1267.6 126.72 1295.2 145.2C1315.36 158.64 1331.2 168.36 1357.96 183.72C1360 185.04 1363.6 186.96 1365.76 188.28C1376.56 194.52 1379.8 196.44 1387 200.88C1391.32 203.64 1403.08 211.32 1413.16 218.04C1423.36 224.88 1431.04 229.56 1430.2 228.6C1426.84 224.64 1387.12 198.96 1361.32 184.32C1345.96 175.44 1320.88 159.96 1305.88 149.88C1267.24 124.2 1250.68 114.96 1233.4 109.56C1225.36 107.04 1215.52 104.88 1216.6 105.96Z" fill="#305F72"/>
<path d="M1201 113.28C1192.36 114.84 1186.36 117.48 1181.8 121.56C1175.2 127.56 1175.68 128.52 1182.52 123.12C1191.64 116.16 1198.24 114 1212.28 113.88C1219.84 113.76 1222.12 113.4 1219.6 112.8C1214.56 111.48 1210 111.6 1201 113.28Z" fill="#305F72"/>
<path d="M1146.64 120.84C1136.68 147 1133.32 179.4 1137.88 207.24C1141.84 231.84 1155.16 261.36 1171.36 281.88C1178.32 290.52 1200.4 311.04 1209.4 316.92C1219.48 323.64 1233.28 331.2 1235.32 331.2C1235.92 331.08 1232.68 329.28 1228.24 327C1211.8 318.6 1202.68 311.64 1185.64 294.84C1160.44 269.88 1144.6 239.28 1139.08 205.2C1135.24 181.2 1138.36 149.52 1146.88 124.2C1148.92 118.32 1150.36 113.4 1150.12 113.16C1150 112.92 1148.44 116.4 1146.64 120.84Z" fill="#305F72"/>
<path d="M1229.2 115.2C1231.84 115.8 1235.56 116.76 1237.48 117.48C1239.4 118.32 1241.2 118.68 1241.44 118.32C1242.28 117.48 1230.76 114 1227.52 114.12C1225.24 114.24 1225.84 114.6 1229.2 115.2Z" fill="#305F72"/>
<path d="M1176.64 116.04C1176.16 116.4 1175.8 117.6 1175.8 118.68C1175.92 120.24 1176.16 120.24 1177.12 118.44C1178.44 116.16 1178.08 114.48 1176.64 116.04Z" fill="#305F72"/>
<path d="M1246.6 120.6C1252.12 122.76 1254.28 122.64 1249.6 120.6C1247.68 119.64 1245.16 118.92 1244.2 118.92C1243.24 118.92 1244.32 119.76 1246.6 120.6Z" fill="#305F72"/>
<path d="M1254.64 123.72C1255.48 124.56 1256.44 124.92 1256.8 124.56C1257.16 124.2 1256.56 123.48 1255.36 123.12C1253.68 122.4 1253.56 122.52 1254.64 123.72Z" fill="#305F72"/>
<path d="M1167.52 138L1162.24 148.92L1162.96 163.56C1163.92 183.84 1166.68 191.52 1178.68 207C1183 212.52 1201 230.76 1201 229.56C1201 229.2 1197.52 225.12 1193.2 220.68C1187.56 214.92 1183.96 209.76 1180.36 202.08C1175.44 191.88 1175.32 191.28 1175.32 179.52C1175.32 170.04 1176.04 165.36 1178.2 158.04C1179.88 153 1181.44 148.8 1181.8 148.8C1182.16 148.8 1182.52 154.08 1182.64 160.56C1182.88 177.48 1188.64 193.56 1199.56 207.84C1206.64 217.08 1211.56 225.24 1213.12 230.64C1215.04 237.12 1217.8 252.36 1217.8 256.32C1217.8 258.36 1219 261.6 1220.32 263.4C1222.84 266.52 1223.2 266.64 1231.12 265.8L1239.4 264.96L1240.6 268.32C1242.64 274.32 1243.72 275.4 1247.68 275.76C1250.68 276.12 1251.4 276.72 1251.4 279C1251.4 281.28 1252.24 282.12 1254.76 282.6C1260.04 283.8 1261.48 285 1262.32 288.96C1266.04 307.2 1286.68 305.88 1306.96 286.08C1314.4 278.88 1324.24 265.56 1323.04 264.48C1322.8 264.12 1320.88 266.52 1318.84 269.64C1311.4 281.28 1293.28 296.28 1283.68 298.8C1277.92 300.36 1271.44 299.28 1268.8 296.4C1266.4 293.76 1262.08 282 1263.52 282C1264.12 282 1264.6 281.4 1264.6 280.8C1264.6 280.08 1262.8 279.84 1259.8 280.32C1255.96 280.92 1254.88 280.68 1254.28 279C1253.08 275.88 1255.12 273.36 1260.76 271.32C1265.92 269.52 1267.96 266.64 1263.16 268.2C1261.6 268.68 1257.76 269.52 1254.4 270C1250.2 270.6 1249.48 270.96 1252 271.08C1254.76 271.2 1255.24 271.44 1253.8 272.4C1252.84 273 1250.44 273.6 1248.64 273.6C1245.88 273.6 1244.92 272.76 1243.48 269.4C1242.52 266.88 1240.36 264.6 1238.44 263.76L1235.2 262.32L1239.88 261.72C1242.52 261.36 1244.8 260.4 1245.04 259.68C1245.64 257.76 1236.76 259.2 1233.16 261.72C1229.44 264.48 1224.64 264.72 1222.6 262.2C1221.88 261.24 1220.68 256.8 1220.2 252.36C1218.04 235.56 1214.56 224.04 1209.04 216C1207 213 1205.08 210.36 1204.6 210C1202.32 208.08 1196.08 198.96 1193.44 193.8C1186.84 180.6 1184.8 171.12 1184.8 153.36C1184.8 144.36 1184.44 137.28 1183.96 137.64C1183.36 137.88 1183 138.84 1183 139.68C1183 140.52 1181.56 144.6 1179.88 148.92C1174.96 160.8 1173.4 168.48 1173.4 179.4C1173.4 186.48 1174.12 191.4 1175.68 195.6C1177 198.84 1177.48 201.6 1177 201.6C1175.2 201.6 1167.4 184.56 1166.44 178.8C1165.6 173.52 1166.2 162.24 1167.76 153.6C1168.24 150.96 1167.76 151.8 1166.32 156L1164.04 162.6L1163.92 157.32C1163.8 150.36 1165.96 143.28 1170.16 137.04C1171.96 134.28 1173.4 130.8 1173.16 129.48C1172.92 127.8 1171.12 130.68 1167.52 138Z" fill="#305F72"/>
<path d="M1190.2 129.6C1190.2 130.32 1190.68 131.52 1191.4 132.36C1197.04 139.2 1198.6 141.48 1198.6 142.68C1198.6 143.4 1199.2 144 1199.8 144C1200.52 144 1203.04 145.32 1205.56 147C1207.96 148.56 1212.4 150.24 1215.4 150.6C1218.4 151.08 1222.12 151.56 1223.56 151.92C1225.12 152.28 1226.08 152.04 1225.72 151.44C1225.36 150.84 1222 149.76 1218.16 148.92C1208.08 147 1199.56 141.72 1194.88 134.4C1190.92 128.16 1190.2 127.56 1190.2 129.6Z" fill="#305F72"/>
<path d="M1190.32 135.36C1190.2 139.32 1194.28 146.76 1198.72 150.48C1206.88 157.44 1222.6 163.44 1236.64 165C1245.28 165.96 1251.64 168.24 1264 174.72C1269.28 177.48 1279 182.04 1285.6 184.8C1324.48 201.12 1340.32 209.16 1357 220.56C1373.44 231.96 1380.4 241.68 1386.64 262.2C1390.12 273.72 1391.56 295.2 1389.4 303.6C1386.88 313.32 1387 315.12 1389.64 307.8C1395.16 292.44 1392.04 266.52 1382.32 246.6C1379.68 241.32 1377.64 236.88 1377.76 236.76C1377.88 236.64 1381 239.4 1384.72 242.76C1412.2 267.84 1426.84 281.28 1432 285.72C1475.32 324 1492.84 347.64 1494.76 370.56C1495.12 374.88 1495.72 377.52 1496.32 376.68C1498.36 373.32 1494.88 358.68 1489.36 347.4C1481.2 330.84 1463.8 311.28 1432.6 283.8C1424.32 276.6 1414.12 267.36 1409.8 263.28C1377.76 232.92 1353.04 213.96 1329.76 202.32C1324 199.32 1308.16 192.24 1294.6 186.6C1254.76 169.68 1251.04 166.92 1272.76 170.88C1278.52 171.84 1286.44 172.92 1290.4 173.28C1297 173.88 1296.76 173.76 1286.8 171.48C1270.96 168.12 1263.4 166.8 1258.36 166.8C1255.96 166.8 1253.2 166.08 1252.36 165.24C1251.52 164.28 1248.4 163.2 1245.4 162.72C1242.4 162.24 1238.68 161.52 1237.12 161.16C1235.08 160.68 1234.48 160.92 1235.08 161.88C1236.4 163.92 1233.04 163.56 1223.32 160.68C1213 157.68 1202.32 152.16 1198.24 147.84C1196.56 146.04 1194.04 141.84 1192.72 138.6C1191.16 134.52 1190.32 133.44 1190.32 135.36Z" fill="#305F72"/>
<path d="M1171.6 141.72C1171.12 142.44 1171 143.16 1171.36 143.52C1171.6 143.88 1172.2 143.28 1172.56 142.2C1173.4 140.16 1172.68 139.8 1171.6 141.72Z" fill="#305F72"/>
<path d="M1228.6 152.52C1227.04 153.6 1227.16 153.72 1228.96 153.12C1230.04 152.76 1232.2 152.88 1233.76 153.48C1237 154.68 1254.64 156.48 1253.68 155.52C1253.32 155.04 1248.64 154.2 1243.48 153.6C1238.2 153 1233.16 152.28 1232.2 151.92C1231.24 151.56 1229.56 151.8 1228.6 152.52Z" fill="#305F72"/>
<path d="M1258.36 156.84C1259.08 157.08 1260.52 157.08 1261.36 156.84C1262.08 156.48 1261.48 156.24 1259.8 156.24C1258.12 156.24 1257.52 156.48 1258.36 156.84Z" fill="#305F72"/>
<path d="M1328.8 170.4C1330 171.72 1331.2 172.8 1331.56 172.8C1331.92 172.8 1331.2 171.72 1330 170.4C1328.8 169.08 1327.6 168 1327.24 168C1326.88 168 1327.6 169.08 1328.8 170.4Z" fill="#305F72"/>
<path d="M1337.08 176.88C1339.72 179.28 1346.44 184.56 1352.08 188.52C1357.72 192.48 1370.8 201.84 1381 209.4C1402.72 225.48 1416.76 234.96 1437.4 247.8C1459.12 261.24 1476.04 273.84 1488.88 286.2C1501.84 298.68 1508.8 308.04 1513.72 319.56C1515.64 324 1517.32 327.24 1517.56 326.52C1518.28 324.48 1509.64 307.8 1504.12 300.36C1492.36 284.76 1467.04 264.24 1434.76 244.08C1431.64 242.16 1425.04 237.84 1420 234.6C1414.96 231.24 1408.24 227.04 1405.24 225.24C1402.12 223.32 1398.28 220.56 1396.6 219C1394.92 217.56 1389.04 213.12 1383.4 209.28C1377.76 205.44 1364.8 196.2 1354.6 188.64C1332.4 172.2 1330.96 171.24 1337.08 176.88Z" fill="#305F72"/>
<path d="M1316.8 182.52C1317.28 183.12 1318.48 183.6 1319.56 183.6C1322.92 183.6 1353.52 200.04 1364.08 207.48C1368.28 210.48 1399.72 228 1400.8 228C1402.36 228 1393.24 222.12 1384.24 217.32C1374.76 212.28 1351.36 198.72 1342 192.72C1332.04 186.36 1315 179.4 1316.8 182.52Z" fill="#305F72"/>
<path d="M1230.04 187.32C1222.96 188.64 1215.88 192.84 1214.32 196.68L1213 199.8L1215.4 196.56C1218.4 192.72 1228.96 188.4 1236.16 188.28C1238.92 188.16 1242.88 187.68 1244.8 187.2C1250.08 185.88 1236.88 185.88 1230.04 187.32Z" fill="#305F72"/>
<path d="M1250.56 188.04C1251.64 188.28 1253.32 188.28 1254.16 188.04C1254.88 187.68 1254.04 187.44 1252 187.44C1250.08 187.44 1249.36 187.68 1250.56 188.04Z" fill="#305F72"/>
<path d="M1225.84 198.84C1224.04 200.52 1225.12 204.96 1228.48 209.52L1232.08 214.2L1229.56 216.84C1226.56 220.08 1227.4 220.32 1232.32 217.68C1235.2 216.24 1236.4 216.12 1237.72 217.2C1241.56 220.56 1252.6 213 1252.6 207.12C1252.6 205.32 1253.44 203.64 1254.4 203.28C1255.36 202.8 1255.84 202.08 1255.48 201.48C1255.12 200.88 1250.92 203.16 1246.12 206.4C1241.32 209.76 1236.28 212.4 1235.08 212.4C1232.32 212.4 1226.92 202.92 1228.12 200.04C1228.84 198 1227.4 197.28 1225.84 198.84ZM1250.32 208.56C1248.76 211.56 1243.36 215.04 1241.08 214.56C1240 214.32 1241.56 212.52 1245.04 209.88C1251.28 205.2 1252.24 204.96 1250.32 208.56Z" fill="#305F72"/>
<path d="M1333.36 229.92C1333.24 238.44 1329.52 253.08 1326.76 256.56C1326.04 257.4 1325.8 258.36 1326.16 258.84C1328.56 261.12 1335.4 237.96 1335.4 228.12C1335.4 219.6 1333.6 221.28 1333.36 229.92Z" fill="#305F72"/>
<path d="M1320.64 278.04C1312.96 284.04 1312.72 285.36 1318.12 296.64C1322.44 305.88 1322.8 307.56 1323.16 318.72C1323.52 327.72 1323.16 331.92 1321.72 335.28C1319.32 341.04 1319.32 341.88 1321.6 338.88C1323.28 336.6 1323.28 336.6 1323.4 339C1323.4 342.24 1318.84 349.44 1314.28 353.28C1309.72 357 1307.32 362.52 1308.28 366.48C1309.84 372.84 1323.04 372.12 1338.4 364.92C1356.52 356.52 1367.2 347.64 1376.44 333.6L1379.92 328.2L1376.56 332.4C1364.92 347.04 1353.4 356.16 1337.8 363.36C1323.4 369.96 1316.56 371.16 1311.64 367.68C1307.56 364.92 1308.4 361.68 1315.12 354.84C1324.12 345.72 1325.56 341.64 1325.68 325.2C1325.92 310.2 1324.12 302.4 1318 291.96C1315.48 287.88 1315.12 286.32 1316.2 284.4C1316.92 283.08 1317.88 282 1318.36 282C1319.68 281.88 1326.16 276 1325.56 275.28C1325.2 275.04 1323.04 276.24 1320.64 278.04Z" fill="#305F72"/>
<path d="M1247.92 305.4C1248.88 306.72 1250.32 308.52 1251.16 309.36C1251.88 310.32 1254.28 313.32 1256.32 316.32C1264 327.48 1267.24 339.48 1267.24 355.8C1267.12 370.92 1263.64 382.2 1253.8 399.6C1251.76 403.2 1251.16 404.88 1252.48 403.2C1257.04 397.56 1264.48 382.08 1266.88 373.2C1269.88 362.52 1270.24 346.8 1267.6 337.2C1264.96 327.36 1259.08 316.56 1252.36 309.36C1249 305.88 1247.08 304.08 1247.92 305.4Z" fill="#305F72"/>
<path d="M1238.2 332.4C1239.16 333 1240.6 333.6 1241.2 333.6C1241.92 333.6 1241.56 333 1240.6 332.4C1239.64 331.8 1238.32 331.2 1237.6 331.2C1237 331.2 1237.24 331.8 1238.2 332.4Z" fill="#305F72"/>
<path d="M1246.36 335.64C1247.2 336 1248.28 335.88 1248.64 335.52C1249.12 335.16 1248.4 334.8 1247.08 334.92C1245.76 334.92 1245.4 335.28 1246.36 335.64Z" fill="#305F72"/>
<path d="M1251.4 337.2C1252.36 337.8 1253.8 338.4 1254.4 338.4C1255.12 338.4 1254.76 337.8 1253.8 337.2C1252.84 336.6 1251.52 336 1250.8 336C1250.2 336 1250.44 336.6 1251.4 337.2Z" fill="#305F72"/>
<path d="M1246.6 410.4C1245.16 412.32 1244.32 414 1244.68 414C1244.92 414 1246.36 412.32 1247.8 410.4C1249.24 408.36 1250.08 406.8 1249.72 406.8C1249.48 406.8 1248.04 408.36 1246.6 410.4Z" fill="#305F72"/>
<path d="M1238.32 421.08C1237.36 422.16 1231.48 428.4 1225.12 434.88L1213.6 446.76L1222.96 438.48C1231.96 430.68 1241.32 420.36 1240.48 419.4C1240.24 419.28 1239.28 419.88 1238.32 421.08Z" fill="#305F72"/>
<path d="M1448.8 457.56C1412.2 495.24 1373.2 524.16 1330.24 545.28C1300.6 559.92 1283.8 565.92 1257.4 571.2C1240 574.68 1217.8 574.68 1203.64 571.08C1182.88 565.92 1165.36 553.68 1158.28 539.16C1155.04 532.68 1154.8 531.24 1154.8 517.2C1154.8 504.96 1155.16 501.36 1157.08 497.64C1158.28 495.12 1159 492.84 1158.64 492.48C1158.28 492.12 1156.84 495 1155.4 498.84C1151.8 508.2 1151.44 524.28 1154.68 534.84C1160.32 553.2 1180.24 568.2 1206.16 573.6C1214.92 575.4 1241.2 575.4 1252 573.6C1282.72 568.56 1318.12 555.48 1348.96 537.84C1351.36 536.4 1355.2 534.24 1357.36 533.04C1386.88 516.12 1426.36 483.6 1456.6 450.84C1466.32 440.4 1460.92 445.08 1448.8 457.56Z" fill="#305F72"/>
<path d="M1192 462C1191.64 462.6 1191.76 463.2 1192.48 463.2C1193.08 463.2 1194.04 462.6 1194.4 462C1194.76 461.28 1194.64 460.8 1193.92 460.8C1193.32 460.8 1192.36 461.28 1192 462Z" fill="#305F72"/>
<path d="M1187.2 464.4C1186.84 465.12 1187.32 465.24 1188.28 464.88C1190.44 464.04 1190.8 463.2 1189.12 463.2C1188.4 463.2 1187.56 463.68 1187.2 464.4Z" fill="#305F72"/>
<path d="M1175.56 472.08C1168.24 478.2 1162.96 484.08 1160.92 488.4C1160.44 489.36 1161.28 488.64 1162.84 486.72C1167.16 481.2 1175.92 472.8 1180.96 469.56C1183.36 467.88 1185.4 466.32 1185.4 466.08C1185.4 464.64 1182.52 466.32 1175.56 472.08Z" fill="#305F72"/>
<path d="M98.4 86.34C120.1 89.44 134.856 95.02 142.42 103.08C145.768 106.552 146.14 107.792 146.14 115.232C146.14 122.92 145.768 124.16 141.552 129.74C139.072 133.212 134.98 140.032 132.5 145.116C129.4 151.316 124.812 157.392 118.24 164.336C107.204 175.992 105.84 180.084 109.064 192.98C113.528 211.084 117.992 217.408 133.492 227.7C141.8 233.28 144.9 233.032 149.24 226.708C152.96 221.252 162.012 214.68 165.856 214.68C167.344 214.68 169.824 215.548 171.312 216.664C176.768 220.508 173.42 232.04 166.724 232.04C165.484 232.04 163.004 233.156 161.144 234.644C159.408 236.008 157.92 236.628 157.92 236.008C157.92 234.396 162.012 230.924 166.848 228.568C171.436 226.212 172.8 221.748 170.072 218.028C168.584 215.92 168.088 216.044 161.888 219.144C157.548 221.252 154.076 224.104 151.968 227.328C148.124 233.156 144.652 234.768 139.32 233.28C131.632 231.048 115.884 217.16 111.668 208.976C110.676 206.992 109.188 202.28 108.32 198.56C107.452 194.84 106.212 191.368 105.468 190.996C104.724 190.5 104.848 187.896 105.84 183.804C106.708 180.208 107.08 177.108 106.832 176.736C105.964 175.992 79.428 193.972 69.508 202.032C64.92 205.752 55.248 215.176 48.056 222.864C40.74 230.676 31.316 239.48 26.976 242.58C19.66 247.912 -1.54402 260.56 -2.90802 260.56C-5.01602 260.56 -20.64 272.836 -23.492 276.68C-28.328 283.5 -28.204 291.808 -23.12 298.752C-21.012 301.728 -20.02 303.96 -20.888 303.96C-23.988 303.96 -28.576 294.908 -29.072 287.84C-29.94 276.184 -23.988 270.356 6.01999 253.12C24 242.828 31.44 237 44.336 223.112C58.968 207.364 69.384 198.436 88.108 185.788C96.788 179.96 108.196 171.032 113.28 165.948C121.712 157.764 131.88 143.256 131.88 139.412C131.88 138.668 128.78 139.908 124.812 142.264C120.968 144.62 117.248 146.48 116.752 146.48C115.14 146.48 48.676 179.34 35.78 186.532C21.768 194.22 5.27599 206.496 -13.82 223.236C-22.004 230.304 -32.42 238.984 -37.132 242.332C-42.588 246.3 -45.688 249.648 -46.308 251.756C-46.68 253.492 -50.648 262.916 -54.988 272.588C-60.32 284.244 -64.288 295.404 -66.644 305.324C-69.496 316.856 -71.356 321.692 -74.828 326.404C-77.184 329.752 -79.664 332.48 -80.284 332.48C-80.904 332.48 -79.168 329.628 -76.564 326.156C-73.092 321.568 -71.356 317.6 -70.24 312.144C-67.264 296.272 -64.164 287.716 -53.5 264.9C-45.44 247.54 -45.564 247.416 -58.956 258.328C-75.944 272.092 -87.228 283.996 -90.204 291.188C-94.296 301.48 -93.304 313.136 -87.104 325.784C-83.136 333.72 -73.712 350.212 -72.1 352.072C-71.852 352.32 -67.264 349.468 -61.932 345.748C-56.6 342.028 -49.408 337.44 -45.812 335.58C-42.216 333.72 -36.14 329.38 -32.296 325.908C-28.204 322.188 -25.848 320.7 -26.716 322.312C-27.46 323.8 -27.708 325.04 -27.212 325.04C-24.98 325.04 20.032 309.664 24.62 307.432C48.056 295.528 62.192 276.804 66.78 251.26C73.228 215.796 74.84 210.712 80.668 205.256C86.124 200.172 86.248 202.032 81.04 208.604C75.336 215.796 74.468 218.772 71.74 238.24C68.02 264.404 61.448 280.152 48.8 292.8C35.78 305.82 26.976 310.16 -10.1 321.196C-32.172 327.892 -29.444 326.528 -47.3 339.424C-48.664 340.416 -53.376 343.268 -57.84 345.872C-68.752 352.196 -85.864 369.432 -91.072 379.476C-95.784 388.776 -95.908 391.38 -92.312 401.92C-88.964 412.088 -81.772 419.404 -69 425.852C-59.204 430.812 -61.436 431.06 -72.1 426.1C-87.228 419.28 -96.404 405.392 -97.024 388.652C-97.148 383.444 -96.9 379.848 -96.404 380.716C-95.66 381.832 -94.048 380.22 -91.3201 375.756C-89.088 372.036 -84.5 365.96 -81.276 362.116C-77.928 358.396 -75.2 354.304 -75.2 353.064C-75.2 351.824 -77.68 346.864 -80.656 342.028C-93.056 321.444 -94.296 318.096 -94.296 305.82C-94.296 291.436 -92.064 276.928 -88.964 269.86C-84.004 258.576 -73.464 246.3 -56.6 232.04C-52.26 228.32 -45.688 222.368 -42.092 219.02L-35.644 212.82L-32.42 187.4C-26.964 146.48 -20.888 130.36 -4.02402 111.884C16.684 89.564 54.256 80.14 98.4 86.34ZM57.232 86.96C43.964 87.952 40.12 88.696 31.812 92.168C3.91199 103.7 -10.844 118.332 -20.764 144C-24.98 154.912 -27.212 164.956 -29.816 185.54C-32.048 202.032 -32.296 208.976 -30.808 207.984C-30.188 207.612 -27.956 203.644 -25.6 199.18C-23.368 194.716 -21.26 191.244 -21.012 191.492C-20.268 192.36 -25.476 203.024 -29.444 208.356C-31.924 211.828 -34.156 217.284 -35.644 223.608C-36.884 228.94 -39.116 235.636 -40.604 238.364C-41.968 241.216 -42.96 243.696 -42.712 243.944C-42.092 244.44 -28.204 233.032 -9.85202 217.036C14.948 195.336 29.208 186.284 65.54 168.8C75.708 163.84 85.628 158.756 87.364 157.516C89.1 156.276 90.96 155.532 91.208 155.904C91.58 156.152 97.408 153.796 104.104 150.448C110.924 147.1 119.604 142.76 123.572 140.9C131.88 136.932 135.6 132.84 135.724 127.384C135.848 125.276 136.344 121.804 136.964 119.82C137.708 117.216 137.832 118.704 137.46 124.78L136.964 133.46L139.32 130.608C140.684 128.996 142.668 124.656 143.784 121.06C145.52 115.48 145.644 113.868 144.404 110.644C143.04 107.42 141.8 106.676 135.724 105.56C124.688 103.328 121.34 101.84 129.4 102.584C133.12 102.956 136.964 103.452 137.708 103.7C141.552 104.94 138.824 101.716 132.872 98.12C125.68 93.656 108.32 88.944 92.82 87.208C79.304 85.596 75.46 85.596 57.232 86.96ZM-40.48 220.384C-41.472 221.376 -48.912 228.072 -57.096 235.14C-72.596 248.408 -83.012 260.064 -86.98 268.62C-89.336 273.828 -91.196 286.972 -89.2121 284.74C-88.592 283.996 -85.4921 280.4 -82.392 276.68C-79.292 272.836 -69.992 264.528 -61.808 258.08C-48.044 247.292 -46.556 245.68 -43.208 238.24C-39.86 231.172 -36.76 221.996 -36.76 219.268C-36.76 217.78 -38.868 218.276 -40.48 220.384Z" fill="#305F72"/>
<path d="M56.24 91.92C27.224 94.028 9.864 106.924 0.688004 132.84C-1.916 140.404 -2.04 140.528 -1.296 135.32C0.316002 124.16 5.276 115.108 13.956 107.42C28.464 94.648 38.88 90.556 57.356 90.804L69.26 91.052L56.24 91.92Z" fill="#305F72"/>
<path d="M89.1 93.904C93.812 94.772 99.392 96.136 101.5 96.88L105.22 98.12L101.5 97.5C99.392 97.128 93.316 96.012 87.86 95.02C82.404 94.028 75.956 93.036 73.6 92.788C70.004 92.416 70.128 92.292 74.84 92.292C77.94 92.168 84.264 92.912 89.1 93.904Z" fill="#305F72"/>
<path d="M118.612 111.76C116.752 113.744 115.016 115.48 114.768 115.48C113.776 115.48 118.736 109.404 120.224 108.784C121.34 108.412 120.596 109.652 118.612 111.76Z" fill="#305F72"/>
<path d="M139.816 113.62C139.32 114.612 138.576 115.232 138.08 114.86C137.46 114.488 134.36 117.712 131.012 121.928C122.58 132.716 114.644 141.148 114.52 139.536C114.52 138.792 115.76 137.18 117.124 135.816C118.612 134.576 122.828 129.492 126.672 124.78C133.74 115.728 137.584 111.76 139.444 111.76C140.064 111.76 140.188 112.628 139.816 113.62Z" fill="#305F72"/>
<path d="M105.592 135.444C102.12 142.14 91.084 155.78 90.96 153.796C90.96 153.3 93.812 149.456 97.284 145.116C100.756 140.776 104.724 135.072 105.964 132.468C107.328 129.988 108.692 127.88 109.064 127.88C109.436 127.88 107.824 131.352 105.592 135.444Z" fill="#305F72"/>
<path d="M155.192 108.04C161.268 111.76 164.12 117.34 163.996 125.4L163.748 132.22L162.88 125.4C161.64 115.48 159.408 111.512 152.96 108.288C149.984 106.8 148.248 105.56 149.24 105.56C150.232 105.56 152.96 106.676 155.192 108.04Z" fill="#305F72"/>
<path d="M153.828 120.812C156.06 124.408 158.416 128.748 159.284 130.608C160.152 132.592 161.268 134.08 161.888 134.08C162.384 134.08 162.88 135.196 162.88 136.56C162.88 138.048 163.872 140.9 164.988 143.132C166.352 145.736 167.344 151.688 167.84 160.74C168.708 174.38 168.708 174.38 176.272 189.508C184.332 205.38 185.076 208.48 182.224 210.836C179.868 212.82 166.352 212.076 165.608 209.968C165.236 208.728 166.724 208.356 172.304 208.728C179.496 209.1 179.62 209.1 179.992 205.628C180.364 203.148 178.132 197.444 172.924 187.276C165.36 172.644 165.36 172.52 165.36 161.856C165.36 150.324 164.492 147.348 154.572 126.888C151.596 120.44 149.24 115.108 149.488 114.736C149.736 114.488 151.72 117.216 153.828 120.812Z" fill="#305F72"/>
<path d="M160.4 159.128C160.4 160.244 158.168 160.74 153.828 160.74C148.744 160.864 145.52 161.856 139.816 164.956C133.616 168.552 132.872 168.676 134.98 166.32C140.56 159.996 160.4 154.416 160.4 159.128Z" fill="#305F72"/>
<path d="M151.72 170.536C150.108 172.396 149.24 174.504 149.612 175.496C150.604 177.852 149.612 177.976 145.644 175.744L142.668 174.132L147.504 170.784C153.58 166.692 155.564 166.568 151.72 170.536Z" fill="#305F72"/>
<path d="M104.6 192.98C104.6 193.6 103.98 195.088 103.36 196.08C102.74 197.072 102.12 197.32 102.12 196.7C102.12 195.956 102.74 194.592 103.36 193.6C103.98 192.608 104.6 192.236 104.6 192.98Z" fill="#305F72"/>
<path d="M101.5 200.42C101.004 201.784 99.888 205.132 99.02 207.86C98.152 210.588 95.548 216.416 93.316 220.88C89.348 228.32 89.1 229.808 89.1 240.72C89.1 250.764 89.472 253.12 91.828 256.964C93.44 259.444 94.68 261.924 94.68 262.544C94.68 263.164 92.944 260.684 90.836 257.088C83.272 244.192 84.512 232.66 95.92 210.34C99.392 203.52 101.872 199.056 101.5 200.42Z" fill="#305F72"/>
<path d="M167.716 235.636C168.956 236.38 169.204 237.992 168.584 240.844C166.104 252.748 166.228 254.732 170.196 260.56C177.388 270.976 177.76 281.02 171.312 290.94C165.732 299.248 154.572 302.224 142.792 298.504C135.476 296.148 118.488 288.088 117.62 286.476C117.248 285.98 121.588 287.592 127.168 290.32C140.064 296.396 147.628 298.256 155.564 297.512C167.096 296.396 172.8 289.08 172.8 275.564C172.8 268.744 172.304 267.008 168.832 261.924C165.608 257.212 164.864 255.104 164.988 250.02C165.236 242.456 165.608 234.52 165.856 234.52C165.856 234.52 166.724 235.016 167.716 235.636Z" fill="#305F72"/>
<path d="M118.86 264.652C122.332 268.868 127.54 274.944 130.64 278.292C137.336 285.484 137.708 287.344 132.128 286.848C126.672 286.476 106.212 276.184 101.128 271.348C96.292 266.636 95.796 263.784 100.508 268.248C102.492 269.86 105.592 272.464 107.7 273.828C112.04 276.804 129.152 284.12 131.632 284.12C132.624 284.12 130.888 281.392 127.912 278.168C120.596 269.86 111.544 258.08 112.164 257.46C112.536 257.212 115.512 260.436 118.86 264.652Z" fill="#305F72"/>
<path d="M107.204 267.628C108.816 269.612 108.692 269.736 106.708 268.124C105.592 267.256 104.6 266.264 104.6 266.016C104.6 265.024 105.592 265.644 107.204 267.628Z" fill="#305F72"/>
<path d="M114.52 273.084L118.86 276.928L114.892 274.2C111.296 271.844 108.692 269.24 109.808 269.24C110.056 269.24 112.164 270.976 114.52 273.084Z" fill="#305F72"/>
<path d="M109.312 290.94C109.064 291.56 107.08 295.9 104.972 300.364C98.152 314.252 95.3 331.24 98.524 339.548C100.26 344.384 103.98 347.98 112.66 353.932C142.792 374.144 161.268 402.044 168.956 438.5C172.18 453.38 173.296 475.576 171.808 489.96C170.692 499.756 170.692 498.764 170.444 477.56C170.32 453.504 168.46 440.732 162.756 423C157.796 407.872 148.62 390.636 140.188 380.84C130.516 369.432 128.16 367.448 112.288 356.164C97.408 345.5 94.68 341.16 94.68 328.884C94.68 318.84 100.88 299.62 106.088 293.916C108.072 291.56 109.56 290.196 109.312 290.94Z" fill="#305F72"/>
<path d="M210.248 315.988C216.82 318.468 227.36 325.536 227.36 327.52C227.36 328.264 224.136 326.652 220.168 323.924C207.768 315.616 199.956 314.376 186.812 319.088C171.56 324.42 168.088 330.992 181.356 329.504C205.164 326.9 203.304 326.9 206.9 330.62C209.256 333.348 210.372 333.844 211.488 332.728C212.356 331.86 216.448 331.24 220.788 331.24C226.988 331.24 229.716 331.86 233.436 334.216C241.62 339.424 255.508 352.072 256.872 355.668C257.616 357.652 258.484 368.936 258.732 380.84C259.352 405.64 260.84 411.964 268.28 423.62C271.008 427.712 273.984 433.168 275.1 435.772C278.324 443.708 280.68 457.472 280.556 468.632C280.432 485.744 278.82 485.496 278.448 468.384C278.2 446.932 275.224 436.144 265.8 422.38C259.104 412.584 257.12 403.532 257.12 382.7C257.12 359.264 256.624 356.784 250.92 351.08C237.9 338.06 224.756 331.488 216.324 333.72C209.504 335.58 196.36 350.212 196.36 355.916C196.36 360.008 199.832 359.016 206.652 352.816C213.348 346.864 217.068 344.88 221.532 344.88C223.516 344.88 223.02 345.5 219.3 347.236C216.572 348.6 211.488 352.196 208.14 355.296C201.32 361.62 197.228 363.356 194.5 361C192.516 359.264 191.896 349.22 193.756 350.46C194.5 350.832 195.616 349.84 196.484 348.352C197.228 346.74 200.08 342.896 202.684 339.796C206.652 334.96 207.148 333.72 205.784 332.604C202.808 330.124 196.112 329.752 187.68 331.612L179.62 333.224L183.588 335.332C188.424 337.936 192.64 343.144 192.64 346.616C192.64 348.848 192.268 348.724 190.284 345.376C186.936 339.92 181.604 336.076 177.884 336.448C173.42 336.944 173.296 340.54 177.264 349.344C179 353.312 182.1 362.116 184.084 368.812C188.424 383.94 191.648 389.52 203.428 402.416C213.472 413.204 218.06 420.272 219.176 426.1C219.672 428.58 219.3 427.96 217.936 424.488C216.572 420.892 211.612 414.568 203.304 405.764C189.292 390.884 184.456 382.7 180.984 367.572C179.744 362.612 177.264 355.296 175.28 351.452C171.188 343.516 170.444 336.572 173.42 335.456C176.148 334.34 175.652 332.852 172.18 331.984C165.236 330.248 171.312 321.816 182.72 317.476C192.144 313.88 203.056 313.26 210.248 315.988Z" fill="#305F72"/>
<path d="M61.82 336.076C90.588 346.74 105.22 355.296 120.968 370.92C128.78 378.856 136.468 389.024 142.42 399.44C144.156 402.54 141.552 399.688 136.964 393.364C125.432 377.864 121.836 373.648 115.636 368.316C100.136 355.172 81.412 344.756 56.86 335.58C48.676 332.604 42.848 330.124 43.84 330.124C44.832 330.124 52.892 332.852 61.82 336.076Z" fill="#305F72"/>
<path d="M9.12 340.54C24.372 343.888 45.948 353.312 63.06 364.1C100.136 387.536 135.104 426.72 150.852 462.308C158.292 479.172 164.74 501.368 166.848 517.24C167.22 519.844 167.84 519.224 171.188 512.776C176.892 501.864 189.292 483.636 196.484 475.824C203.676 467.888 212.604 461.812 223.02 457.596C233.188 453.504 249.06 453.38 256.624 457.348C263.692 461.068 274.108 472.848 275.968 479.172C278.696 488.844 277.828 495.168 272.124 506.7C256.252 538.692 211.364 559.4 184.828 547C179.62 544.52 167.84 532.616 166.352 528.276C165.98 527.284 164.12 527.904 161.02 530.012C158.292 531.748 154.696 533.484 152.96 533.856C150.232 534.6 150.356 534.476 153.58 532.616C155.564 531.5 158.788 529.144 160.648 527.408C163.624 524.68 164.12 523.316 164.12 517.24C164.12 510.296 161.764 499.136 156.68 482.892C147.876 454.248 132.128 428.704 107.204 402.788C75.336 369.556 33.176 345.376 -3.28 339.548C-5.388 339.176 -5.01602 339.052 -2.04001 339.052C0.315979 339.052 5.39999 339.672 9.12 340.54ZM218.556 461.688C206.9 467.516 198.592 475.452 185.944 492.688C176.272 506.204 166.848 525.672 168.708 528.772C177.016 542.908 192.888 550.844 207.892 548.24C233.56 543.9 252.408 532.74 264.808 514.388C277.952 495.044 277.828 478.304 264.436 465.78C255.632 457.596 252.284 456.356 239.016 456.728C228.972 457.1 226.864 457.596 218.556 461.688Z" fill="#305F72"/>
<path d="M244.1 352.94L247.82 354.8L243.48 353.932C235.544 352.568 226.368 353.436 221.16 356.04C214.836 359.264 207.644 365.712 204.668 370.796C202.56 374.268 202.56 374.764 204.42 375.384C205.536 375.88 210.124 374.516 214.712 372.408C219.3 370.3 224.508 368.192 226.244 367.82C229.964 366.952 239.264 369.06 240.504 371.044C241 372.036 240.504 372.036 238.768 371.044C234.056 368.564 226.616 369.556 216.2 374.144C204.668 379.104 202.064 379.228 201.568 374.268C199.956 360.876 229.716 345.996 244.1 352.94Z" fill="#305F72"/>
<path d="M-13.82 365.34C-13.2 365.588 -7.24799 367.2 -0.799988 369.06C17.8 374.144 42.228 389.024 64.796 409.236C83.148 425.48 114.272 462.06 143.66 501.864C154.696 516.868 161.144 526.168 156.68 520.96C147.504 510.048 143.908 505.46 133.74 491.82C79.056 418.908 38.012 381.956 -1.04799 370.548C-6.75198 368.812 -13.324 366.952 -15.68 366.208C-18.036 365.588 -18.904 364.968 -17.54 364.968C-16.176 364.968 -14.564 365.092 -13.82 365.34Z" fill="#305F72"/>
<path d="M-1.17201 375.26C14.824 382.204 31.068 402.044 49.42 437.26C67.648 471.98 80.296 490.58 97.408 507.568C108.444 518.48 126.672 531.004 136.096 534.104C139.568 535.22 143.288 536.832 144.28 537.7C145.272 538.568 148.248 539.932 150.728 540.8C153.332 541.544 155.44 542.536 155.44 542.784C155.44 543.652 151.472 542.412 141.8 538.692C103.856 523.936 78.684 497.152 48.8 439.74C33.672 410.476 28.96 403.284 18.42 392.744C11.352 385.552 5.89598 381.336 -0.67601 377.988C-9.23201 373.648 -9.72801 371.54 -1.17201 375.26Z" fill="#305F72"/>
</svg>
