<?xml version="1.0" standalone="no"?>
<!DOCTYPE svg PUBLIC "-//W3C//DTD SVG 20010904//EN"
 "http://www.w3.org/TR/2001/REC-SVG-20010904/DTD/svg10.dtd">
<svg version="1.0" xmlns="http://www.w3.org/2000/svg"
 width="500.000000pt" height="500.000000pt" viewBox="0 0 500.000000 500.000000"
 preserveAspectRatio="xMidYMid meet">

<g transform="translate(0.000000,500.000000) scale(0.100000,-0.100000)"
fill="#000000" stroke="none">
<path d="M2400 4465 c-175 -25 -294 -70 -355 -135 -27 -28 -30 -38 -30 -98 0
-62 3 -72 37 -117 20 -28 53 -83 73 -124 25 -50 62 -99 115 -155 89 -94 100
-127 74 -231 -36 -146 -72 -197 -197 -280 -67 -45 -92 -43 -127 8 -30 44 -103
97 -134 97 -12 0 -32 -7 -44 -16 -44 -31 -17 -124 37 -124 10 0 30 -9 45 -21
14 -11 26 -16 26 -11 0 13 -33 41 -72 60 -37 19 -48 55 -26 85 12 17 16 16 66
-9 35 -17 63 -40 80 -66 31 -47 59 -60 102 -48 62 18 189 130 223 196 8 16 20
54 27 84 7 30 17 58 23 61 6 4 5 25 -3 58 -7 29 -10 54 -8 57 7 6 221 -139
301 -204 37 -30 115 -106 173 -168 59 -63 135 -134 170 -159 59 -43 230 -145
241 -145 17 0 143 -99 166 -130 39 -55 38 -122 -3 -178 -17 -24 -25 -42 -18
-42 25 0 62 73 66 130 7 94 -41 141 -283 280 -145 83 -205 130 -309 242 -118
127 -202 199 -353 301 -70 47 -162 119 -203 160 -68 66 -150 183 -150 214 0 6
25 -4 57 -23 31 -19 61 -34 65 -34 13 0 549 -265 653 -323 113 -62 246 -161
400 -296 66 -57 150 -127 188 -154 44 -32 69 -59 74 -76 3 -14 35 -90 70 -168
43 -94 75 -184 94 -264 23 -93 38 -132 66 -170 19 -27 39 -49 44 -49 5 0 -9
23 -30 51 -28 37 -42 69 -51 113 -24 128 -49 197 -135 381 -65 140 -64 141 44
53 137 -111 228 -207 252 -265 33 -83 25 -177 -25 -279 -32 -64 -108 -197
-121 -212 -2 -2 -39 21 -82 51 -43 30 -101 67 -130 82 -29 15 -78 50 -109 78
-33 30 -52 42 -45 29 6 -12 8 -22 4 -22 -18 0 -381 124 -418 142 -189 96 -303
247 -340 453 -52 286 -65 327 -112 371 -44 41 -45 26 -3 -27 46 -58 53 -82 75
-239 30 -211 83 -338 185 -440 105 -105 176 -140 475 -229 178 -54 156 -43
300 -147 11 -8 49 -31 85 -52 88 -51 226 -190 268 -271 38 -75 39 -96 10 -181
-27 -82 -85 -141 -188 -193 -79 -40 -61 -42 25 -2 122 55 196 167 201 302 1
42 -1 71 -5 64 -6 -9 -19 4 -41 40 -18 30 -55 79 -81 110 -27 30 -49 63 -49
73 0 10 20 50 44 89 100 166 110 193 110 292 0 116 -18 233 -43 290 -40 91
-125 190 -261 305 -35 30 -88 78 -117 105 l-52 50 -26 205 c-44 330 -93 460
-229 609 -167 180 -470 256 -826 206z m332 -5 c107 -8 138 -14 205 -42 225
-93 344 -211 424 -418 34 -88 52 -169 73 -335 18 -133 20 -189 8 -181 -5 3
-23 35 -42 71 -18 36 -35 64 -37 62 -6 -7 36 -93 68 -136 20 -28 38 -72 50
-123 10 -43 28 -97 40 -119 11 -23 19 -43 17 -45 -5 -4 -117 88 -265 217 -200
175 -315 248 -608 389 -82 40 -162 81 -176 91 -14 10 -29 16 -31 13 -3 -2 -50
17 -104 44 -55 27 -125 62 -157 77 -67 32 -97 65 -98 109 -1 17 -5 45 -10 61
-6 21 -7 9 -4 -40 l4 -70 -19 23 c-11 13 -27 48 -36 77 -14 45 -15 58 -5 84
11 26 21 32 70 41 89 18 116 30 51 24 -30 -3 -61 -7 -67 -9 -31 -10 -9 16 39
45 58 36 198 74 323 88 109 13 140 13 287 2z m788 -1076 c8 -8 68 -62 134
-119 125 -107 209 -201 241 -270 19 -42 34 -148 18 -130 -5 6 -30 35 -55 65
-25 31 -100 98 -166 150 -111 87 -123 100 -150 160 -27 57 -52 131 -52 153 0
12 17 8 30 -9z"/>
<path d="M2740 4420 c234 -17 374 -121 448 -330 21 -61 22 -62 16 -20 -13 90
-53 163 -123 225 -117 103 -201 136 -350 134 l-96 -2 105 -7z"/>
<path d="M2475 4404 c-38 -7 -83 -18 -100 -24 l-30 -10 30 5 c17 3 66 12 110
20 44 8 96 16 115 18 29 3 28 4 -10 4 -25 1 -76 -5 -115 -13z"/>
<path d="M2237 4260 c15 -16 29 -30 31 -30 8 0 -32 49 -44 54 -9 3 -3 -7 13
-24z"/>
<path d="M2066 4245 c4 -8 10 -13 14 -10 5 3 30 -23 57 -57 68 -87 132 -155
133 -142 0 6 -10 19 -21 30 -12 10 -46 51 -77 89 -57 73 -88 105 -103 105 -5
0 -6 -7 -3 -15z"/>
<path d="M2342 4069 c28 -54 117 -164 118 -148 0 4 -23 35 -51 70 -28 35 -60
81 -70 102 -11 20 -22 37 -25 37 -3 0 10 -28 28 -61z"/>
<path d="M3212 4000 c0 -14 2 -19 5 -12 2 6 2 18 0 25 -3 6 -5 1 -5 -13z"/>
<path d="M3222 3950 c0 -14 2 -19 5 -12 2 6 2 18 0 25 -3 6 -5 1 -5 -13z"/>
<path d="M3270 3765 c0 -5 5 -17 10 -25 5 -8 10 -10 10 -5 0 6 -5 17 -10 25
-5 8 -10 11 -10 5z"/>
<path d="M3290 3711 c0 -6 4 -13 10 -16 6 -3 7 1 4 9 -7 18 -14 21 -14 7z"/>
<path d="M1942 4290 c-49 -30 -72 -75 -71 -140 l2 -55 7 55 c10 80 28 112 80
138 24 12 38 22 30 22 -8 0 -30 -9 -48 -20z"/>
<path d="M1953 4187 c-18 -29 -37 -64 -44 -79 -7 -16 -16 -28 -21 -28 -4 0 -8
-9 -8 -20 0 -12 -8 -35 -17 -53 -11 -21 -19 -69 -23 -142 -7 -110 -7 -110 -68
-232 -65 -128 -71 -153 -48 -172 19 -16 128 -10 134 7 3 10 -9 13 -54 10 -58
-3 -59 -3 -62 25 -3 20 15 66 57 148 61 118 61 119 61 205 0 93 7 117 87 282
24 52 43 95 41 98 -2 2 -18 -20 -35 -49z"/>
<path d="M1900 3878 c0 -9 18 -13 53 -13 41 -1 67 -9 113 -34 50 -29 56 -30
39 -11 -45 51 -205 96 -205 58z"/>
<path d="M1970 3786 c13 -15 20 -32 17 -40 -8 -19 0 -20 32 -2 l24 13 -39 27
c-49 33 -65 34 -34 2z"/>
<path d="M2350 3605 c0 -5 5 -17 10 -25 5 -8 10 -10 10 -5 0 6 -5 17 -10 25
-5 8 -10 11 -10 5z"/>
<path d="M2375 3545 c4 -11 13 -38 20 -60 7 -22 28 -69 46 -105 32 -60 34 -72
34 -160 0 -81 -3 -100 -22 -131 -13 -20 -23 -40 -23 -45 0 -5 14 15 31 44 61
104 51 197 -41 377 -28 55 -48 91 -45 80z"/>
<path d="M1841 3261 c-10 -6 -12 -19 -7 -42 20 -96 19 -112 -13 -159 -58 -84
-61 -165 -9 -245 45 -67 135 -91 230 -61 59 19 196 84 203 97 3 4 -32 -9 -77
-31 -104 -49 -165 -64 -229 -58 -93 9 -139 68 -139 177 0 55 4 69 32 110 26
38 32 55 31 96 -2 61 -5 125 -7 125 0 0 -7 -4 -15 -9z"/>
<path d="M2235 3027 c-28 -34 -70 -83 -95 -110 -54 -58 -57 -73 -12 -69 44 3
209 86 250 125 39 38 43 61 5 25 -16 -13 -41 -34 -58 -45 -35 -24 -173 -83
-193 -83 -8 0 6 22 30 48 59 67 132 162 127 167 -3 2 -27 -24 -54 -58z"/>
<path d="M2329 3003 c-13 -16 -12 -17 4 -4 9 7 17 15 17 17 0 8 -8 3 -21 -13z"/>
<path d="M2270 2959 l-35 -31 32 22 c29 19 50 40 41 40 -2 0 -19 -14 -38 -31z"/>
<path d="M2312 2815 c2 -5 18 -40 35 -76 55 -112 78 -249 52 -316 -14 -39 -44
-68 -114 -116 -243 -163 -392 -388 -454 -682 -26 -120 -35 -299 -23 -415 9
-79 9 -71 11 100 1 194 16 297 62 440 40 122 114 261 182 340 78 92 97 108
225 199 120 86 142 121 142 220 0 81 -50 236 -92 282 -16 19 -28 30 -26 24z"/>
<path d="M1498 2613 c-53 -20 -138 -77 -138 -93 0 -6 26 7 58 29 100 67 163
77 269 39 123 -43 151 -96 44 -84 -192 21 -177 21 -206 -9 -19 -22 -28 -26
-37 -17 -7 7 -40 12 -75 12 -50 0 -72 -5 -102 -24 -66 -42 -178 -144 -189
-173 -6 -16 -13 -107 -15 -203 -5 -200 -17 -251 -77 -345 -22 -33 -46 -77 -55
-98 -26 -64 -45 -175 -44 -265 1 -138 14 -136 17 2 2 173 26 260 102 371 54
79 70 152 70 320 0 189 4 209 50 255 105 105 211 158 279 140 55 -15 161 -133
161 -179 0 -33 -28 -25 -83 25 -54 48 -84 64 -120 64 -16 0 -12 -5 18 -19 22
-11 63 -40 90 -65 55 -51 88 -65 110 -46 16 14 21 95 6 85 -6 -3 -15 5 -22 17
-6 13 -29 44 -50 69 -32 39 -36 49 -25 58 24 20 78 23 146 8 l65 -13 -32 -17
c-39 -21 -73 -63 -73 -91 0 -18 3 -17 19 10 27 44 70 75 100 72 36 -4 37 -33
5 -104 -14 -32 -39 -103 -55 -157 -35 -122 -61 -167 -156 -271 -81 -87 -118
-144 -127 -191 -4 -20 -1 -15 10 13 11 29 51 80 118 151 113 120 152 186 180
308 10 40 30 99 46 130 33 64 39 120 15 129 -22 9 -18 21 10 28 56 14 7 82
-85 117 -76 29 -164 34 -222 12z"/>
<path d="M2695 2451 c-232 -86 -350 -155 -477 -281 -63 -64 -125 -146 -173
-230 -14 -25 7 -2 44 49 93 125 122 159 172 202 125 106 276 190 474 264 66
24 113 44 105 44 -8 0 -73 -22 -145 -48z"/>
<path d="M3385 2440 c-4 -6 16 -10 52 -9 42 0 52 3 38 9 -28 12 -83 12 -90 0z"/>
<path d="M3268 2433 c12 -2 30 -2 40 0 9 3 -1 5 -23 4 -22 0 -30 -2 -17 -4z"/>
<path d="M3120 2415 c-123 -27 -297 -103 -435 -190 -299 -189 -581 -505 -708
-792 -60 -136 -112 -315 -129 -443 -3 -21 -8 -16 -35 36 -46 88 -146 235 -204
298 -58 64 -130 113 -214 147 -82 33 -210 34 -271 2 -57 -30 -141 -125 -156
-176 -22 -78 -15 -129 31 -222 128 -258 490 -425 704 -325 42 20 137 116 149
151 3 8 18 3 43 -14 22 -14 51 -28 65 -31 22 -6 21 -5 -5 10 -16 9 -42 28 -57
42 -24 22 -28 33 -28 82 0 56 19 146 60 277 71 231 198 437 399 646 257 268
597 463 891 510 17 3 14 4 -10 4 -19 0 -60 -5 -90 -12z m-1689 -977 c94 -47
161 -111 263 -250 78 -109 154 -266 139 -291 -67 -114 -195 -178 -316 -157
-207 35 -359 125 -459 273 -106 156 -105 291 3 392 71 66 98 76 205 73 81 -3
98 -7 165 -40z"/>
<path d="M1225 2315 l-30 -15 35 7 c64 11 138 4 180 -17 51 -26 109 -78 133
-119 17 -28 17 -32 2 -37 -9 -4 -46 7 -83 24 -37 17 -79 34 -93 37 -30 7 -105
-10 -115 -26 -4 -8 0 -8 14 0 38 20 98 12 182 -25 93 -40 114 -41 118 -1 13
108 -227 228 -343 172z"/>
<path d="M3435 2219 c44 -4 98 -12 120 -18 22 -6 51 -10 65 -10 14 1 -9 9 -50
20 -41 10 -106 18 -145 17 l-70 -1 80 -8z"/>
<path d="M3305 2215 c-5 -2 -53 -15 -105 -30 -150 -41 -347 -161 -529 -324
-148 -131 -399 -426 -636 -747 -89 -121 -141 -196 -105 -154 74 88 103 125
185 235 441 588 772 886 1087 978 46 14 99 29 118 35 19 5 26 10 15 10 -11 0
-24 -1 -30 -3z"/>
<path d="M3982 2150 c0 -19 2 -27 5 -17 2 9 2 25 0 35 -3 9 -5 1 -5 -18z"/>
<path d="M3203 2135 c-129 -56 -260 -216 -408 -500 -147 -280 -249 -430 -387
-567 -89 -88 -236 -189 -312 -214 -28 -9 -58 -22 -66 -29 -8 -7 -32 -18 -52
-25 -21 -6 -38 -14 -38 -16 0 -7 32 3 110 33 306 119 509 335 750 798 122 236
160 294 245 379 57 58 101 92 154 119 69 35 73 52 4 22z"/>
</g>
</svg>
